<svg width="38" height="38" viewBox="0 0 38 38" fill="none" xmlns="http://www.w3.org/2000/svg">
<path d="M19.0002 12.6668L6.3335 25.3335V31.6668L12.6668 31.6668L25.3335 19.0002M19.0002 12.6668L23.5422 8.12481L23.5449 8.12211C24.1701 7.49688 24.4833 7.18371 24.8443 7.06642C25.1623 6.96309 25.5049 6.96309 25.8229 7.06642C26.1836 7.18363 26.4964 7.49644 27.1208 8.12079L29.8755 10.8755C30.5025 11.5025 30.8161 11.8161 30.9336 12.1777C31.0369 12.4957 31.0369 12.8382 30.9336 13.1562C30.8162 13.5175 30.503 13.8307 29.8769 14.4568L29.8755 14.4581L25.3335 19.0002M19.0002 12.6668L25.3335 19.0002" stroke="#1A185C" stroke-width="2" stroke-linecap="round" stroke-linejoin="round"/>
</svg>
