<svg width="40" height="39" viewBox="0 0 40 39" fill="none" xmlns="http://www.w3.org/2000/svg">
<path d="M23.3332 16.25V27.625M16.6665 16.25V27.625M9.99984 9.75V28.925C9.99984 30.7452 9.99984 31.6546 10.3631 32.3498C10.6827 32.9614 11.1923 33.4595 11.8195 33.7711C12.5318 34.125 13.4648 34.125 15.328 34.125H24.6717C26.5348 34.125 27.4665 34.125 28.1788 33.7711C28.806 33.4595 29.3173 32.9614 29.6369 32.3498C29.9998 31.6553 29.9998 30.7466 29.9998 28.93V9.75M9.99984 9.75H13.3332M9.99984 9.75H6.6665M13.3332 9.75H26.6665M13.3332 9.75C13.3332 8.23569 13.3332 7.47891 13.5869 6.88165C13.9252 6.08531 14.5737 5.45225 15.3905 5.12239C16.003 4.875 16.78 4.875 18.3332 4.875H21.6665C23.2196 4.875 23.9962 4.875 24.6088 5.12239C25.4255 5.45225 26.0743 6.08531 26.4126 6.88165C26.6663 7.47891 26.6665 8.23569 26.6665 9.75M26.6665 9.75H29.9998M29.9998 9.75H33.3332" stroke="white" stroke-width="2" stroke-linecap="round" stroke-linejoin="round"/>
</svg>
